<?xml version="1.0" standalone="no"?>
<!DOCTYPE svg PUBLIC "-//W3C//DTD SVG 20010904//EN"
 "http://www.w3.org/TR/2001/REC-SVG-20010904/DTD/svg10.dtd">
<svg version="1.0" xmlns="http://www.w3.org/2000/svg"
 width="512.000000pt" height="512.000000pt" viewBox="0 0 512.000000 512.000000"
 preserveAspectRatio="xMidYMid meet">

<g transform="translate(0.000000,512.000000) scale(0.100000,-0.100000)"
fill="#000000" stroke="none">
<path d="M2345 4900 c-460 -99 -797 -450 -870 -905 -10 -62 -15 -170 -15 -352
l0 -263 -22 0 c-75 0 -160 -56 -201 -134 -22 -41 -22 -45 -25 -693 l-3 -652
-483 -3 -483 -3 -69 -35 c-49 -25 -79 -49 -105 -84 -71 -94 -70 -82 -67 -747
l3 -594 28 -57 c30 -62 83 -115 149 -150 42 -22 51 -23 362 -26 318 -3 319 -3
342 19 34 31 32 81 -2 108 -26 20 -38 21 -313 21 -278 0 -288 1 -331 22 -31
16 -51 36 -67 67 l-23 44 0 556 c0 335 4 570 10 592 12 42 51 82 102 103 33
14 276 16 2295 16 1451 0 2271 -4 2293 -10 41 -11 94 -61 109 -103 7 -19 11
-218 11 -591 l0 -562 -22 -44 c-14 -26 -37 -53 -58 -65 -35 -20 -51 -20 -1887
-25 -2041 -6 -1875 0 -1889 -67 -5 -26 -1 -37 20 -57 l25 -26 1868 2 1868 3
43 23 c66 35 119 88 149 150 l28 57 3 594 c3 665 4 653 -67 747 -26 35 -56 59
-105 84 l-69 35 -483 3 -484 3 0 359 c0 213 -4 369 -10 385 -13 33 -72 60
-100 45 -50 -27 -50 -29 -50 -422 l0 -368 -423 0 -423 0 -19 175 -18 174 24
53 c18 42 23 71 23 138 0 114 -32 187 -116 265 -96 89 -219 116 -347 76 -201
-62 -303 -287 -220 -481 l22 -51 -18 -174 -19 -175 -313 0 -313 0 0 630 c0
529 2 636 15 665 l14 35 1040 -2 1039 -3 26 -24 c25 -24 26 -29 26 -143 0
-113 1 -120 25 -143 31 -32 66 -32 102 -1 l28 24 0 134 c0 117 -3 138 -22 174
-41 77 -125 134 -200 134 l-23 0 0 263 c0 286 -11 393 -55 524 -120 356 -411
626 -782 724 -116 31 -356 36 -478 9z m328 -635 c80 -21 131 -49 190 -103 63
-60 103 -117 129 -190 20 -52 22 -83 26 -324 l4 -268 -461 0 -461 0 0 233 c0
128 5 259 11 291 31 167 168 317 330 360 71 19 161 20 232 1z"/>
<path d="M789 1431 c-23 -18 -24 -27 -29 -155 l-5 -135 -102 59 c-56 32 -111
61 -122 65 -37 12 -90 -30 -91 -72 0 -34 37 -67 135 -123 50 -29 94 -55 98
-59 5 -5 -38 -34 -94 -66 -56 -32 -110 -68 -120 -79 -25 -26 -24 -57 2 -90 32
-41 69 -35 187 34 57 33 105 60 108 60 2 0 4 -59 4 -130 0 -126 1 -132 25
-155 30 -30 64 -32 99 -4 26 20 26 22 26 155 0 74 2 134 6 134 3 0 52 -27 109
-60 112 -65 152 -73 185 -40 23 23 26 68 7 93 -7 10 -61 46 -120 81 l-109 63
103 58 c56 32 110 66 120 76 37 37 16 110 -37 123 -20 5 -49 -6 -137 -56 -61
-35 -115 -64 -119 -66 -4 -2 -8 57 -8 130 0 128 -1 136 -23 156 -29 27 -67 28
-98 3z"/>
<path d="M1934 1429 c-16 -18 -20 -42 -24 -155 l-5 -134 -103 59 c-127 73
-134 76 -170 57 -31 -16 -42 -34 -42 -69 1 -35 18 -50 133 -117 59 -34 107
-63 107 -65 0 -2 -46 -29 -101 -60 -56 -32 -110 -66 -120 -76 -42 -42 -8 -119
53 -119 19 0 69 22 135 60 58 33 107 60 109 60 2 0 4 -59 4 -130 0 -126 1
-132 25 -155 31 -32 69 -32 100 0 24 23 25 29 25 155 0 71 3 130 6 130 3 0 52
-27 108 -60 112 -65 152 -74 186 -40 22 22 26 60 10 90 -5 10 -52 42 -102 71
-51 29 -101 58 -111 64 -16 11 -5 20 85 71 57 32 111 67 120 76 23 23 23 70 1
96 -35 42 -60 37 -182 -33 -63 -36 -116 -65 -118 -65 -2 0 -3 60 -3 133 0 127
-1 135 -23 155 -30 28 -78 29 -103 1z"/>
<path d="M3082 1427 c-20 -21 -22 -34 -22 -155 0 -73 -1 -132 -3 -132 -2 0
-55 29 -118 65 -122 70 -147 75 -181 33 -23 -26 -23 -73 0 -96 9 -9 64 -43
120 -76 92 -52 102 -59 85 -70 -10 -7 -60 -37 -111 -66 -51 -29 -97 -61 -102
-71 -16 -29 -11 -68 10 -89 34 -34 74 -25 186 40 56 33 105 60 108 60 3 0 6
-59 6 -130 0 -126 1 -132 25 -155 31 -32 69 -32 100 0 24 23 25 29 25 155 0
71 2 130 4 130 2 0 51 -27 109 -60 66 -38 116 -60 135 -60 53 0 86 53 66 105
-4 8 -50 41 -103 72 -53 31 -104 62 -114 69 -17 11 -7 18 83 70 113 63 140 87
140 120 0 36 -11 54 -42 70 -36 19 -47 15 -171 -57 l-102 -59 -5 134 c-4 113
-8 137 -24 155 -26 29 -76 28 -104 -2z"/>
<path d="M4232 1427 c-20 -22 -22 -34 -22 -156 0 -73 -4 -131 -8 -129 -4 2
-58 31 -119 66 -88 50 -117 61 -137 56 -53 -13 -74 -86 -37 -123 10 -10 64
-44 120 -76 56 -32 100 -59 99 -60 -2 -2 -48 -29 -103 -60 -55 -32 -108 -64
-117 -73 -25 -21 -23 -77 2 -102 34 -34 74 -25 186 40 56 33 105 60 108 60 3
0 6 -60 6 -134 0 -133 0 -135 26 -155 35 -28 69 -26 99 4 24 23 25 29 25 155
0 71 2 130 3 130 2 0 51 -27 108 -60 119 -69 156 -75 188 -34 44 56 22 88
-110 164 -60 34 -109 64 -109 65 0 2 47 31 105 64 106 63 135 90 135 126 -1
40 -54 81 -91 70 -11 -4 -66 -33 -122 -65 l-102 -59 -5 135 c-5 128 -6 137
-29 155 -32 26 -73 24 -99 -4z"/>
</g>
</svg>
